{"title":"The Do Over (2016) HDRip XviD-MAXSPEED","uid":14742221,"size":1887734521,"categoryP":"video","categoryS":"movies","magnet":"?xt=urn:btih:d350079ea7b55e3a1d1df70bf7670a12e466eddb&amp;dn=The+Do+Over+%282016%29+HDRip+XviD-MAXSPEED&amp;tr=udp%3A%2F%2Ftracker.leechers-paradise.org%3A6969&amp;tr=udp%3A%2F%2Fzer0day.ch%3A1337&amp;tr=udp%3A%2F%2Fopen.demonii.com%3A1337&amp;tr=udp%3A%2F%2Ftracker.coppersurfer.tk%3A6969&amp;tr=udp%3A%2F%2Fexodus.desync.com%3A6969","seeders":14,"leechers":4,"uploader":"extremezone","files":4,"time":1464689648,"description":"http://extraimago.com/images/2016/05/31/dooverc.jpg\r\n\r\nScreens:\r\n \nhttp://extraimago.com/images/2016/05/31/vlcsnap-2016-05-31-19h47m48s204.jpg \nhttp://extraimago.com/images/2016/05/31/vlcsnap-2016-05-31-19h47m05s24.jpg \nhttp://extraimago.com/images/2016/05/31/vlcsnap-2016-05-31-19h47m18s152.jpg \nhttp://extraimago.com/images/2016/05/31/vlcsnap-2016-05-31-19h47m42s139.jpg\r\n\r\nScreenCaps:\r\n \nhttp://extraimago.com/images/2016/05/31/screencaps.jpg\r\n\r\nThe Do Over (2016) HDRip XviD-MAXSPEED\r\nFormat                                   : AVI\r\nFormat/Info                              : Audio Video Interleave\r\nFile size                                : 1.75 GiB\r\nDuration                                 : 1h 47mn\r\nOverall bit rate                         : 2 334 Kbps\r\nWriting application                      : VirtualDubMod 1.5.10.2 (build 2542/release)\r\nWriting library                          : VirtualDubMod build 2542/release\r\nOriginal source form                     : MAX TORRENTZ\r\nCopyright                                : SIGISMUNT\r\n\r\nVideo\r\nID                                       : 0\r\nFormat                                   : MPEG-4 Visual\r\nFormat profile                           : Advanced   \r\nFormat settings, BVOP                    : 2\r\nFormat settings, QPel                    : No\r\nFormat settings, GMC                     : No warppoints\r\nFormat settings, Matrix                  : Custom\r\nCodec ID                                 : XVID\r\nCodec ID/Hint                            : XviD\r\nDuration                                 : 1h 47mn\r\nBit rate                                 : 1 941 Kbps\r\nWidth                                    : 720 pixels\r\nHeight                                   : 384 pixels\r\nDisplay aspect ratio                     : 1.85:1\r\nFrame rate                               : 23.976 fps\r\nColor space                              : YUV\r\nChroma subsampling                       : 4:2:0\r\nBit depth                                : 8 bits\r\nScan type                                : Progressive\r\nCompression mode                         : Lossy\r\nBits/(Pixel*Frame)                       : 0.293\r\nStream size                              : 1.45 GiB (83%)\r\nWriting library                          : XviD 1.2.1 (UTC 2008-12-04)\r\n\r\nAudio\r\nID                                       : 1\r\nFormat                                   : AC-3\r\nFormat/Info                              : Audio Coding 3\r\nMode extension                           : CM (complete main)\r\nFormat settings, Endianness              : Big\r\nCodec ID                                 : 2000\r\nDuration                                 : 1h 47mn\r\nBit rate mode                            : Constant\r\nBit rate                                 : 384 Kbps\r\nChannel(s)                               : 6 channels\r\nChannel positions                        : Front: L C R, Side: L R, LFE\r\nSampling rate                            : 48.0 KHz\r\nBit depth                                : 16 bits\r\nCompression mode                         : Lossy\r\nDelay relative to video                  : 2ms\r\nStream size                              : 295 MiB (16%)\r\nAlignment                                : Split accross interleaves\r\nInterleave, duration                     : 42 ms (1.00 video frame)\r\nInterleave, preload duration             : 500 ms\r\n\r\nSource: WEBDL HD (clean encode/source, perfect a/v/sync quality,sample included)\r\nThis torrent is not seedbox supported,please seed it to the MAX\r\n\r\nUploader Note: If you think image it's a little dark on your device then\r\nVLC-&gt;Ctrl+E-&gt;Video Effects-&gt;Image adjust-&gt;Brightness-&gt;Close, simple as 1,2,3\r\nso no more complaints about this please,thank you\r\n\r\nNote: If you have something as early releases, seedboxes  http://torentz.3xforum.ro\r\n\r\nHow To Get Your MAXSPEED (uTorrent)\r\n\r\nTorrent Client - Preferences - Bandwidth - Number of connections - Set aprox. 500 for each\r\nTorrent Client - Preferences - BiTorrent - Protocol Encryption - Forced\r\nBandwidth Allocation - High (Set download/upload limit - Unlimited)\r\nStop Other Active Torrents - Start downloading and wait for connections.\r\nEnjoy and Seed for at least 1:1 ratio. Don't forget to say thanks/leave reviews.\r\nFor other 480p, 720p, 1080p, x264, mkv, Bluray HD downloads use search function.\r\nIf screens/Caps image host is dead googlesearch &quot;release name&quot;+&quot;screens&quot; or &quot;sample&quot;.\r\nGreets to all actual/future p2p/scene QUALITY groups and affiliate websites.\r\nDon't trust IMDb robots/bots bad ratings,always watch some trailers first.\r\nIgnore stupid comments/fake/mislabeled/no-DVDrips/CAM/TS/RAR uploads.\r\nPlease spread this release/torrent to your friends/forums/etc.\r\nIf you need translation subs visit some subtitles sites.\r\nReport if you see online streaming or other spam links.\r\nMAXSPEED free full movie downloads 2008-2016.\r\nRecommended movie player VLC PLAYER","torrent":{"xt":"urn:btih:d350079ea7b55e3a1d1df70bf7670a12e466eddb","amp;dn":"The+Do+Over+%282016%29+HDRip+XviD-MAXSPEED","amp;tr":["udp%3A%2F%2Ftracker.leechers-paradise.org%3A6969","udp%3A%2F%2Fzer0day.ch%3A1337","udp%3A%2F%2Fopen.demonii.com%3A1337","udp%3A%2F%2Ftracker.coppersurfer.tk%3A6969","udp%3A%2F%2Fexodus.desync.com%3A6969"],"infoHash":"d350079ea7b55e3a1d1df70bf7670a12e466eddb","infoHashBuffer":{"type":"Buffer","data":[211,80,7,158,167,181,94,58,29,29,247,11,247,103,10,18,228,102,237,219]},"announce":[],"urlList":[]}}